# xmcd
#
# Track frame offsets:
#        150
#        18522
#        48947
#
# Disc length: 1114 seconds
#
# Revision: 0
# Processed by: cddbd v1.5.1PL2 Copyright (c) Steve Scherf et al.
# Submitted via: ExactAudioCopy v0.95b3
#
DISCID=1b045803
DTITLE=Chara - No Toy[Re-mix]
DYEAR=1992
DGENRE=JPop
TTITLE0=No Toy[Peter Lorimer Re-mix]
TTITLE1=Rainbow Gossip[Collage into Montage]
TTITLE2=No Toy[Extended Mix]
EXTD=
EXTT0=
EXTT1=
EXTT2=
PLAYORDER=
